<svg xmlns="http://www.w3.org/2000/svg" width="100%" height="100%" viewBox="0 0 1092 993" fill="none" preserveAspectRatio="xMidYMid meet">
<g id="Locais individuais">
<g id="rua">
<path d="M257.01 97.6992L275.01 110.699L430.058 251.002L435.182 255.638L530.438 341.836L546.421 356.298L610.209 414.02L622.01 424.699L642.01 440.699L695.01 383.699L309.01 33.6992L275.01 56.6992L257.01 97.6992Z" fill="black" />
<path d="M186.01 238.699L196.522 223.58L275.01 110.699L257.01 97.6992L275.01 56.6992L232.01 33.6992L224.01 48.6992L221.01 56.6992L216.01 54.6992L211.01 62.6992L215.01 65.6992L120.137 219.751L114.01 229.699L108.2 280.699L94.1318 285.199L90.0103 316.699L105.01 308.699L176.01 311.699L177.333 302.043L178.536 293.261L182.952 261.024L186.01 238.699Z" fill="black" />
<path d="M127.01 939.699L129.01 908.699L30.0557 907.301L29.314 946.595L134.01 950.699L127.01 939.699Z" fill="black" />
<path fill-rule="evenodd" clip-rule="evenodd" d="M129.01 908.699L127.01 939.699L134.01 950.699L217.01 952.699V960.699L474.01 966.699L507.907 975.805L603.232 978.381L604.922 924.43L583.01 923.699L569.01 922.699L566.01 916.699L452.01 913.699L437.01 889.699L404.01 888.699L382.01 917.699L292.01 915.699C292.01 915.699 281.316 916.542 266.01 907.699C251.316 899.209 247.01 889.699 247.01 889.699C247.01 889.699 234.677 869.699 210.01 869.699C186.01 869.699 174.01 889.699 174.01 889.699C174.01 889.699 168.866 896.849 155.01 902.699C138.866 909.516 129.01 908.699 129.01 908.699ZM201.01 899.699C198.004 902.608 197.01 908.234 197.01 908.699C197.01 908.699 196.01 913.699 200.01 917.699C204.677 922.366 210.01 921.699 210.01 921.699C210.01 921.699 215.953 922.146 221.01 916.699C224.62 912.812 223.01 907.699 223.01 907.699C223.01 907.699 223.44 902.789 219.01 898.699C214.774 894.789 210.01 895.699 210.01 895.699C210.01 895.699 204.472 896.351 201.01 899.699ZM244.01 911.699L236.01 923.699L262.01 924.699L244.01 911.699Z" fill="black" />
<path d="M1061.01 911.699L1027.01 910.699L621.321 897.92L605.768 897.43L604.922 924.43L603.232 978.381L1059.01 990.699L1061.01 911.699Z" fill="black" />
</g>
<g id="predios">
<path d="M61.0103 596.699L56.0103 855.699L146.01 857.699L153.01 598.699L61.0103 596.699Z" fill="#FE7D09" />
<path d="M467.01 764.699L416.01 765.699L393.023 763.931L368.009 762.007L364.01 761.699V728.699L331.01 727.699V762.699L325.538 762.439L226.01 757.699L225.556 773.362L224.01 826.699L231.255 826.909L266.287 827.922L312.292 829.253L334.467 829.894L354.109 830.462L379.869 831.207L391.164 831.534L410.241 832.086L445.293 833.1L466.01 833.699L466.315 812.665L466.534 797.54L467.01 764.699Z" fill="#FE7D09" />
<path d="M825.01 548.699L593.01 539.699V585.699L547.01 584.699V629.699L570.01 630.699V692.699L512.01 691.699V703.699L509.01 707.699V715.699L511.01 717.699V730.699C511.01 730.699 508.01 733.699 507.01 733.699C506.01 733.699 509.01 744.699 509.01 744.699L568.01 747.699L567.01 790.699H507.01L506.01 798.699L509.01 801.699V815.699L505.01 817.699L504.01 825.699L507.01 829.699V842.699L593.868 845.157L931.01 854.699V815.699H947.01L946.01 882.699L995.77 884.773L998.01 756.699L955.01 755.699L953.01 800.699L608.01 790.699L610.01 748.699L703.01 752.699L706.01 680.699L727.01 682.699L731.01 634.699L823.01 638.699L825.01 548.699Z" fill="#FE7D09" />
<path d="M287.01 353.699V416.699H319.01L320.038 489.994L321.099 565.68L321.397 586.962L322.01 630.699L384.01 631.699L385.01 612.699H393.01L395.01 522.699H441.01L441.53 506.579L445.01 398.699H398.01L397.01 364.699L336.01 362.699L334.01 346.699L343.01 312.699L381.01 313.699L382.01 266.699L269.01 264.699L267.01 312.699H322.01L323.01 352.699L287.01 353.699Z" fill="#FE7D09" />
<path d="M55.0103 364.699V425.699L147.01 427.699L146.776 437.777L146.555 447.286L146.29 458.699L146.01 470.699L54.0103 468.699L52.0103 529.699L166.01 531.699V482.699L202.01 483.699L203.01 412.699L194.9 412.249L167.01 410.699L169.01 366.699L55.0103 364.699Z" fill="#FE7D09" />
<path d="M354.109 830.462L334.467 829.894L334.892 850.071L335.01 855.699L311.01 854.699L310.01 889.699L380.01 890.699L379.01 856.699H355.01L354.782 850.039L354.109 830.462Z" fill="#FE7D09" />
<path fill-rule="evenodd" clip-rule="evenodd" d="M509.96 555.498L509.01 627.699L489.01 626.699L465.01 632.699L466.01 623.699L448.01 633.699V574.699L463.01 561.699H467.01L468.01 556.699L475.01 557.699L477.01 550.699L480.01 551.699V555.699C480.01 555.699 492.01 556.699 492.01 555.699H503.01C504.01 555.699 509.96 555.498 509.96 555.498Z" fill="#FE7D09" />
<path d="M146.29 458.699L146.555 447.286L131.01 446.699V457.699L146.29 458.699Z" fill="#FE7D09" />
</g>
<g id="caminhaveis">
<path d="M445.293 833.1L410.241 832.086L410.01 852.699L391.01 838.699L391.164 831.534L379.869 831.207C379.869 831.207 379.01 839.699 380.01 840.699C381.01 841.699 410.01 862.699 410.01 862.699L408.01 881.699L400.01 880.699L380.01 909.699L291.01 906.699L231.255 826.909L224.01 826.699L188.01 835.699L186.01 852.699L167.01 881.699L154.01 890.699L129.01 908.699C129.01 908.699 138.866 909.516 155.01 902.699C168.866 896.849 174.01 889.699 174.01 889.699C174.01 889.699 186.01 869.699 210.01 869.699C234.677 869.699 247.01 889.699 247.01 889.699C247.01 889.699 251.316 899.209 266.01 907.699C281.316 916.542 292.01 915.699 292.01 915.699L382.01 917.699L404.01 888.699L437.01 889.699L452.01 913.699L566.01 916.699L569.01 922.699L583.01 923.699C583.01 923.699 586.01 917.699 587.01 917.699C588.01 917.699 588.01 900.699 588.01 900.699C588.01 900.699 584.01 901.699 584.01 900.699L568.01 908.699L457.01 905.699C457.01 905.699 443.01 883.699 441.01 882.699C439.01 881.699 429.01 882.699 429.01 882.699L436.01 842.699L445.293 833.1Z" fill="#D9D9D9" />
<path fill-rule="evenodd" clip-rule="evenodd" d="M384.01 631.699L322.01 630.699L321.397 586.962L303.01 599.699L257.01 597.699L207.571 580.977C209.01 583.699 202.01 601.699 204.01 602.699C204.866 603.127 216.107 614.075 213.01 627.699C208.01 649.699 202.01 669.699 202.01 669.699C202.01 669.699 207.799 681.32 209.01 700.699C210.01 716.699 204.01 727.699 192.01 736.699C179.568 746.031 169.01 744.699 169.01 744.699L156.01 745.699L158.01 593.699L56.0103 590.699V824.699H41.0103L45.0103 656.699L42.0103 653.699V623.699L20.2656 624.875L5.01025 625.699L4.35742 667.472L14.0103 666.699L11.0103 775.699C11.0103 775.699 10.0103 794.699 10.0103 796.699V817.699H2.01025L31.0103 856.699L30.9004 862.525L48.0103 863.699L71.0103 876.699L121.01 877.699L151.01 868.699L155.01 772.699L190.01 771.699L188.01 835.699L224.01 826.699L225.556 773.362C225.556 773.362 208.091 764.664 234.01 745.699C275.01 715.699 308.01 690.699 308.01 690.699C308.01 690.699 348.595 668.6 367.01 690.699C392.01 720.699 393.023 763.931 393.023 763.931L416.01 765.699L412.474 751.74L409.232 738.943L397.01 690.699L407.01 656.699L391.181 639.508L384.01 631.699ZM56.0103 855.699L61.0103 596.699L153.01 598.699L146.01 857.699L56.0103 855.699ZM233.01 720.699L247.01 641.699L266.01 646.699L290.01 661.699L299.01 674.699L233.01 720.699Z" fill="#D9D9D9" />
<path fill-rule="evenodd" clip-rule="evenodd" d="M321.397 586.962L321.099 565.68L301.01 565.699L299.01 489.699L320.038 489.994L319.01 416.699H287.01L280.01 360.699H209.01C209.01 360.699 210.947 359.308 212.807 356.66C212.807 356.66 209.01 340.699 192.01 301.699C188.326 293.247 178.536 293.261 178.536 293.261L177.333 302.043C177.333 302.043 184.607 301.864 187.01 307.699C201.01 341.699 204.01 353.699 204.01 353.699V369.699L195.789 375.796L195.498 387.729L203.01 380.699V402.699L195.139 402.467L194.9 412.249L203.01 412.699L202.01 483.699L166.01 482.699V531.699L52.0103 529.699L25.3569 530.144L22.0103 551.699L20.2656 624.875L42.0103 623.699V580.699L51.0103 571.699L189.01 574.699L207.571 580.977L257.01 597.699L303.01 599.699L321.397 586.962ZM172.01 487.699L170.01 543.699L192.01 565.699L230.01 575.699L205.01 495.699H184.01V487.699H172.01ZM275.01 556.699L236.01 573.699L212.01 493.699L214.01 413.699L268.01 425.699L269.01 431.699H277.01L275.01 556.699Z" fill="#D9D9D9" />
<path d="M167.01 410.699L194.9 412.249L195.139 402.467L195.498 387.729L195.789 375.796L196.01 366.699C196.01 366.699 193.01 355.699 182.01 355.699C172.01 355.699 169.01 366.699 169.01 366.699L167.01 410.699Z" fill="#D9D9D9" />
<path d="M146.555 447.286L146.776 437.777L120.01 436.699L112.01 445.699L38.0103 444.699L36.9482 455.483L112.01 457.699L119.01 466.699L146.01 470.699L146.29 458.699L131.01 457.699V446.699L146.555 447.286Z" fill="#D9D9D9" />
<path d="M280.01 360.699L279.01 326.699L266.092 327.116L248.01 327.699L235.01 318.699L213.01 247.699L186.01 238.699L182.952 261.024L196.01 265.699L204.01 280.699C204.01 280.699 210.01 298.699 216.01 343.699C216.77 349.396 214.833 353.774 212.807 356.66C210.947 359.308 209.01 360.699 209.01 360.699H280.01Z" fill="#D9D9D9" />
<path d="M182.952 261.024L178.536 293.261C178.536 293.261 188.326 293.247 192.01 301.699C209.01 340.699 212.807 356.66 212.807 356.66C214.833 353.774 216.77 349.396 216.01 343.699C210.01 298.699 204.01 280.699 204.01 280.699L196.01 265.699L182.952 261.024Z" fill="#D9D9D9" />
<path fill-rule="evenodd" clip-rule="evenodd" d="M381.01 313.699L343.01 312.699L334.01 346.699L336.01 362.699L397.01 364.699L398.01 398.699H445.01V382.699H435.01V353.699H462.01L494.01 382.699C494.01 382.699 472.951 402.771 467.01 447.699C462.285 483.438 478.01 503.699 478.01 503.699H472.01C472.01 503.699 467.796 495.786 462.01 496.699C455.129 497.786 454.01 507.699 454.01 507.699C454.01 507.699 454.831 516.263 462.01 517.699C468.164 518.93 473.01 510.699 473.01 510.699H482.01L538.01 556.699L515.272 556.393L547.01 584.699L593.01 585.699V539.699L590.01 496.699L622.01 424.699L610.209 414.02L591.01 455.699L566.01 434.699L546.421 356.298L530.438 341.836L501.01 374.699L467.01 344.699H434.01L435.182 255.638L430.058 251.002C430.058 251.002 426.01 341.699 426.01 342.699H409.01L383.01 327.699L381.01 313.699ZM538.01 355.699L533.01 350.699L506.01 379.699L556.01 424.699L538.01 355.699ZM574.01 521.699L557.01 531.699L549.01 549.699L552.01 557.699L529.01 539.699L527.01 528.699C527.01 528.699 535.908 524.382 535.01 518.699C533.908 511.715 525.01 509.699 525.01 509.699C525.01 509.699 514.994 511.469 514.01 517.699C512.994 524.135 521.01 528.699 521.01 528.699L520.01 534.699L502.01 517.699L500.01 504.699C500.01 504.699 508.837 500.486 508.01 494.699C506.837 486.486 498.01 484.699 498.01 484.699C498.01 484.699 487.983 485.886 487.01 492.699C485.983 499.886 494.01 504.699 494.01 504.699L492.01 509.699C492.01 509.699 471.01 492.699 472.01 474.699C475.252 416.349 500.01 388.699 500.01 388.699L561.01 443.699L574.01 495.699V521.699ZM382.01 355.699C382.01 355.699 383.01 340.699 383.01 339.699L409.01 354.699H426.01L427.01 383.699H402.01C401.01 383.699 402.01 355.699 402.01 355.699H382.01ZM580.01 481.699L572.01 452.699L586.01 466.699L580.01 481.699Z" fill="#D9D9D9" />
<path fill-rule="evenodd" clip-rule="evenodd" d="M512.01 691.699L570.01 692.699V630.699L547.01 629.699V584.699L515.272 556.393L510.01 551.699L509.96 555.498L509.01 627.699L489.01 626.699L465.01 632.699L466.01 623.699L448.01 633.699H417.01L391.181 639.508L407.01 656.699L489.01 641.699C489.01 641.699 502.521 641.987 507.01 657.699C513.01 678.699 512.01 691.699 512.01 691.699ZM541.01 640.699L523.01 639.699L524.01 685.699C524.01 685.699 564.01 686.699 565.01 687.699C566.01 688.699 566.01 636.699 566.01 636.699H541.01V640.699ZM532.01 618.699L531.01 610.699L539.01 609.699V618.699H532.01Z" fill="#D9D9D9" />
<path fill-rule="evenodd" clip-rule="evenodd" d="M507.01 790.699H567.01L568.01 747.699L509.01 744.699L508.01 757.699L409.232 738.943L412.474 751.74L474.01 761.699L492.01 776.699C492.01 776.699 467.01 796.699 466.534 797.54L466.315 812.665C466.315 812.665 505.01 775.699 504.01 777.699C503.01 779.699 507.01 790.699 507.01 790.699ZM521.01 759.699V750.699C521.01 750.699 560.01 751.699 561.01 751.699C562.01 751.699 561.01 762.699 561.01 762.699L521.01 759.699ZM521.01 785.699V776.699L560.01 771.699V787.699L521.01 785.699Z" fill="#D9D9D9" />
<path fill-rule="evenodd" clip-rule="evenodd" d="M834.201 539.717L825.01 548.699L823.01 638.699L731.01 634.699L727.01 682.699L706.01 680.699L703.01 752.699L610.01 748.699L608.01 790.699L953.01 800.699L955.01 755.699L998.01 756.699L995.77 884.773L1018.01 885.699L1029.01 872.699L1027.01 910.699L1061.01 911.699L1066.01 728.699L1088.01 715.699L1033.01 714.699L1038.01 694.699L1047.69 677.034L1036.42 666.228L1017.01 698.699L1012.01 749.699L931.01 745.699L928.01 794.699L801.01 790.699L805.01 646.699H831.01L834.201 539.717ZM614.01 784.699L616.01 753.699L708.01 756.699L711.01 690.699H737.01L739.01 643.699L779.01 644.699L781.01 652.699L797.01 654.699L793.01 789.699L614.01 784.699Z" fill="#D9D9D9" />
<path d="M592.01 872.699L593.202 855.029L585.01 854.699C585.01 854.699 584.01 899.699 584.01 900.699C584.01 901.699 588.01 900.699 588.01 900.699C588.01 900.699 588.01 917.699 587.01 917.699C586.01 917.699 583.01 923.699 583.01 923.699L604.922 924.43L605.768 897.43L606.01 889.699L592.01 872.699Z" fill="#D9D9D9" />
<path d="M129.01 908.699L154.01 890.699L131.01 896.699L30.2944 894.649L30.0557 907.301L129.01 908.699Z" fill="#D9D9D9" />
<path d="M134.01 965.699V950.699L29.314 946.595L29.0103 962.699L134.01 965.699Z" fill="#D9D9D9" />
<path d="M134.01 950.699V965.699L507.907 975.805L474.01 966.699L217.01 960.699V952.699L134.01 950.699Z" fill="#D9D9D9" />
<path d="M492.01 547.699V555.699H503.01C502.01 555.699 498.01 547.699 498.01 547.699C498.01 547.699 499.55 546.714 501.01 542.699C502.217 539.38 502.01 536.699 502.01 536.699C502.01 536.699 502.436 533.782 499.01 530.699C495.769 527.782 492.01 527.699 492.01 527.699C492.01 527.699 488.449 527.916 485.01 531.699C481.783 535.25 482.01 538.699 482.01 538.699C482.01 538.699 481.917 541.915 485.01 544.699C488.583 547.915 492.01 547.699 492.01 547.699Z" fill="#D9D9D9" />
<path d="M122.01 167.699L74.0103 226.699L32.0103 374.699L5.01025 625.699L20.2656 624.875L22.0103 551.699L25.3569 530.144L36.9482 455.483L38.0103 444.699L48.0103 373.699L55.0103 364.699L90.0103 316.699L94.1318 285.199L104.01 209.699L122.01 167.699Z" fill="#D9D9D9" />
<path d="M197.01 908.699C197.01 908.234 198.004 902.608 201.01 899.699C204.472 896.351 210.01 895.699 210.01 895.699C210.01 895.699 214.774 894.789 219.01 898.699C223.44 902.789 223.01 907.699 223.01 907.699C223.01 907.699 224.62 912.812 221.01 916.699C215.953 922.146 210.01 921.699 210.01 921.699C210.01 921.699 204.677 922.366 200.01 917.699C196.01 913.699 197.01 908.699 197.01 908.699Z" fill="#D9D9D9" />
<path d="M30.9004 862.525L30.4287 887.536L48.0103 886.699V863.699L30.9004 862.525Z" fill="#D9D9D9" />
<path d="M312.292 829.253L266.287 827.922L296.01 857.699L312.292 829.253Z" fill="#D9D9D9" />
<path d="M410.241 832.086L391.164 831.534L391.01 838.699L410.01 852.699L410.241 832.086Z" fill="#D9D9D9" />
<path d="M557.01 531.699L574.01 521.699L508.01 494.699C508.837 500.486 500.01 504.699 500.01 504.699L502.01 517.699L520.01 534.699L521.01 528.699C521.01 528.699 512.994 524.135 514.01 517.699C514.994 511.469 525.01 509.699 525.01 509.699C525.01 509.699 533.908 511.715 535.01 518.699C535.908 524.382 527.01 528.699 527.01 528.699L529.01 539.699L552.01 557.699L549.01 549.699L557.01 531.699Z" fill="#D9D9D9" />
<path d="M287.01 416.699V353.699L323.01 352.699L322.01 312.699H267.01L266.092 327.116L279.01 326.699L280.01 360.699L287.01 416.699Z" fill="#D9D9D9" />
<path d="M1027.01 910.699L1029.01 872.699L1018.01 885.699L995.77 884.773L946.01 882.699L947.01 815.699H931.01V854.699L930.01 862.699L922.01 861.699L918.01 870.699L906.01 887.699L894.01 884.699L876.01 886.699L844.01 888.699L821.01 885.699L807.01 871.699L804.01 858.699L624.01 853.699L621.321 897.92L1027.01 910.699Z" fill="#D9D9D9" />
</g>
<g id="Local 8" data-local-id="local-8">
<g id="areas verdes">
<path d="M55.0103 425.696V364.696L48.0103 373.696L38.0103 444.696L112.01 445.696L120.01 436.696L146.776 437.774L147.01 427.696L55.0103 425.696Z" fill="#286D2C" />
<path d="M55.0103 425.696V364.696L48.0103 373.696L38.0103 444.696L112.01 445.696L120.01 436.696L146.776 437.774L147.01 427.696L55.0103 425.696Z" fill="#286D2C" />
<path d="M54.0103 468.696L146.01 470.696L119.01 466.696L112.01 457.696L36.9482 455.48L25.3569 530.141L52.0103 529.696L54.0103 468.696Z" fill="#286D2C" />
<path d="M54.0103 468.696L146.01 470.696L119.01 466.696L112.01 457.696L36.9482 455.48L25.3569 530.141L52.0103 529.696L54.0103 468.696Z" fill="#286D2C" />
<path d="M236.01 573.696L275.01 556.696L277.01 431.696H269.01L268.01 425.696L214.01 413.696L212.01 493.696L236.01 573.696Z" fill="#286D2C" />
<path d="M236.01 573.696L275.01 556.696L277.01 431.696H269.01L268.01 425.696L214.01 413.696L212.01 493.696L236.01 573.696Z" fill="#286D2C" />
<path d="M170.01 543.696L172.01 487.696H184.01V495.696H205.01L230.01 575.696L192.01 565.696L170.01 543.696Z" fill="#286D2C" />
<path d="M170.01 543.696L172.01 487.696H184.01V495.696H205.01L230.01 575.696L192.01 565.696L170.01 543.696Z" fill="#286D2C" />
<path d="M195.498 387.726L195.139 402.464L203.01 402.696V380.696L195.498 387.726Z" fill="#286D2C" />
<path d="M195.498 387.726L195.139 402.464L203.01 402.696V380.696L195.498 387.726Z" fill="#286D2C" />
<path d="M55.0103 364.696L169.01 366.696C169.01 366.696 172.01 355.696 182.01 355.696C193.01 355.696 196.01 366.696 196.01 366.696L195.789 375.793L204.01 369.696V353.696C204.01 353.696 201.01 341.696 187.01 307.696C184.607 301.861 177.333 302.04 177.333 302.04L176.01 311.696L105.01 308.696L90.0103 316.696L55.0103 364.696Z" fill="#286D2C" />
<path d="M55.0103 364.696L169.01 366.696C169.01 366.696 172.01 355.696 182.01 355.696C193.01 355.696 196.01 366.696 196.01 366.696L195.789 375.793L204.01 369.696V353.696C204.01 353.696 201.01 341.696 187.01 307.696C184.607 301.861 177.333 302.04 177.333 302.04L176.01 311.696L105.01 308.696L90.0103 316.696L55.0103 364.696Z" fill="#286D2C" />
<path d="M321.099 565.676L320.038 489.991L299.01 489.696L301.01 565.696L321.099 565.676Z" fill="#286D2C" />
<path d="M321.099 565.676L320.038 489.991L299.01 489.696L301.01 565.696L321.099 565.676Z" fill="#286D2C" />
</g>
<g id="areas verdes_2">
<path d="M113.889 229.699L120.015 219.751L103.889 209.699L94.0103 285.199L108.079 280.699L113.889 229.699Z" fill="#286D2C" />
<path d="M113.889 229.699L120.015 219.751L103.889 209.699L94.0103 285.199L108.079 280.699L113.889 229.699Z" fill="#286D2C" />
<path d="M223.889 48.6992L218.889 44.6992L121.889 167.699L103.889 209.699L120.015 219.751L214.889 65.6992L210.889 62.6992L215.889 54.6992L220.889 56.6992L223.889 48.6992Z" fill="#286D2C" />
<path d="M223.889 48.6992L218.889 44.6992L121.889 167.699L103.889 209.699L120.015 219.751L214.889 65.6992L210.889 62.6992L215.889 54.6992L220.889 56.6992L223.889 48.6992Z" fill="#286D2C" />
</g>
<path id="Local 8 - linha" d="M287.01 353.699V416.699H319.01L320.038 489.994L321.099 565.68L321.397 586.962L303.01 599.699L257.01 597.699L207.571 580.977L189.01 574.699L51.0103 571.699L42.0103 580.699V623.699L20.2656 624.875L5.01025 625.699L32.0103 374.699L74.0103 226.699L122.01 167.699L219.01 44.6992L224.01 48.6992L232.01 33.6992L275.01 56.6992L257.01 97.6992L275.01 110.699L186.01 238.699L213.01 247.699L235.01 318.699L248.01 327.699L266.092 327.116L267.01 312.699H322.01L323.01 352.699L287.01 353.699Z" stroke="#8C3474" stroke-width="4" />
</g>
<g id="Local 7" data-local-id="local-7">
<g id="areas verdes_3">
<path d="M42.0103 580.699V623.699V653.699L45.0103 656.699L41.0103 824.699H56.0103V590.699L158.01 593.699L156.01 745.699L169.01 744.699C169.01 744.699 179.568 746.031 192.01 736.699C204.01 727.699 210.01 716.699 209.01 700.699C207.799 681.32 202.01 669.699 202.01 669.699C202.01 669.699 208.01 649.699 213.01 627.699C216.107 614.075 204.866 603.127 204.01 602.699C202.01 601.699 209.01 583.699 207.571 580.977L189.01 574.699L51.0103 571.699L42.0103 580.699Z" fill="#286D2C" />
<path d="M42.0103 580.699V623.699V653.699L45.0103 656.699L41.0103 824.699H56.0103V590.699L158.01 593.699L156.01 745.699L169.01 744.699C169.01 744.699 179.568 746.031 192.01 736.699C204.01 727.699 210.01 716.699 209.01 700.699C207.799 681.32 202.01 669.699 202.01 669.699C202.01 669.699 208.01 649.699 213.01 627.699C216.107 614.075 204.866 603.127 204.01 602.699C202.01 601.699 209.01 583.699 207.571 580.977L189.01 574.699L51.0103 571.699L42.0103 580.699Z" fill="#286D2C" />
<path d="M186.01 852.699L188.01 835.699L190.01 771.699L155.01 772.699L151.01 868.699L121.01 877.699L71.0103 876.699L48.0103 863.699V886.699L30.4287 887.536L30.2944 894.649L131.01 896.699L154.01 890.699L167.01 881.699L186.01 852.699Z" fill="#286D2C" />
<path d="M186.01 852.699L188.01 835.699L190.01 771.699L155.01 772.699L151.01 868.699L121.01 877.699L71.0103 876.699L48.0103 863.699V886.699L30.4287 887.536L30.2944 894.649L131.01 896.699L154.01 890.699L167.01 881.699L186.01 852.699Z" fill="#286D2C" />
<path d="M247.01 641.699L233.01 720.699L299.01 674.699L290.01 661.699L266.01 646.699L247.01 641.699Z" fill="#286D2C" />
<path d="M247.01 641.699L233.01 720.699L299.01 674.699L290.01 661.699L266.01 646.699L247.01 641.699Z" fill="#286D2C" />
<path d="M134.01 965.699V950.699L29.314 946.595L29.0103 962.699L134.01 965.699Z" fill="#286D2C" />
<path d="M134.01 965.699V950.699L29.314 946.595L29.0103 962.699L134.01 965.699Z" fill="#286D2C" />
<path d="M4.35742 667.472L2.01025 817.699H10.0103V796.699C10.0103 794.699 11.0103 775.699 11.0103 775.699L14.0103 666.699L4.35742 667.472Z" fill="#286D2C" />
<path d="M4.35742 667.472L2.01025 817.699H10.0103V796.699C10.0103 794.699 11.0103 775.699 11.0103 775.699L14.0103 666.699L4.35742 667.472Z" fill="#286D2C" />
<path d="M225.556 773.362L226.01 757.699L325.538 762.439L326.01 720.699L369.01 721.699L368.009 762.007L393.023 763.931C393.023 763.931 392.01 720.699 367.01 690.699C348.595 668.6 308.01 690.699 308.01 690.699C308.01 690.699 275.01 715.699 234.01 745.699C208.091 764.664 225.556 773.362 225.556 773.362Z" fill="#286D2C" />
<path d="M225.556 773.362L226.01 757.699L325.538 762.439L326.01 720.699L369.01 721.699L368.009 762.007L393.023 763.931C393.023 763.931 392.01 720.699 367.01 690.699C348.595 668.6 308.01 690.699 308.01 690.699C308.01 690.699 275.01 715.699 234.01 745.699C208.091 764.664 225.556 773.362 225.556 773.362Z" fill="#286D2C" />
</g>
<path id="Local 7 - linha" d="M226.01 757.699L325.538 762.439L331.01 762.699V727.699L364.01 728.699V761.699L368.009 762.007L393.023 763.931L416.01 765.699L412.474 751.74L409.232 738.943L397.01 690.699L407.01 656.699L391.181 639.508L384.01 631.699L322.01 630.699L321.397 586.962L303.01 599.699L257.01 597.699L207.571 580.977L189.01 574.699L51.0103 571.699L42.0103 580.699V623.699L20.2656 624.875L5.01025 625.699L4.35742 667.472L2.01025 817.699L31.0103 856.699L30.9004 862.525L30.4287 887.536L30.2944 894.649L30.0557 907.301L29.314 946.595L29.0103 962.699L134.01 965.699V950.699L127.01 939.699L129.01 908.699L154.01 890.699L167.01 881.699L186.01 852.699L188.01 835.699L224.01 826.699L226.01 757.699ZM224.01 826.699L225.556 773.362L226.01 757.699L331.51 762.699V727.699L364.01 729.199V761.199L416.01 765.699" stroke="#8C3474" stroke-width="4" />
</g>
<g id="Local 6" data-local-id="local-6">
<g id="areas verdes_4">
<path d="M379.869 831.208L354.109 830.463L354.782 850.04L387.01 850.7L385.01 896.7L305.01 894.7L306.01 850.7L334.892 850.072L334.467 829.895L312.292 829.253L296.01 857.7L266.287 827.922L231.255 826.909L291.01 906.7L380.01 909.7L400.01 880.7L408.01 881.7L410.01 862.7C410.01 862.7 381.01 841.7 380.01 840.7C379.01 839.7 379.869 831.208 379.869 831.208Z" fill="#286D2C" />
<path d="M379.869 831.208L354.109 830.463L354.782 850.04L387.01 850.7L385.01 896.7L305.01 894.7L306.01 850.7L334.892 850.072L334.467 829.895L312.292 829.253L296.01 857.7L266.287 827.922L231.255 826.909L291.01 906.7L380.01 909.7L400.01 880.7L408.01 881.7L410.01 862.7C410.01 862.7 381.01 841.7 380.01 840.7C379.01 839.7 379.869 831.208 379.869 831.208Z" fill="#286D2C" />
<path d="M593.868 845.158L507.01 842.7L466.01 843.7V833.7L445.293 833.1L436.01 842.7L429.01 882.7C429.01 882.7 439.01 881.7 441.01 882.7C443.01 883.7 457.01 905.7 457.01 905.7L568.01 908.7L584.01 900.7C584.01 899.7 585.01 854.7 585.01 854.7L593.202 855.029L593.868 845.158Z" fill="#286D2C" />
<path d="M593.868 845.158L507.01 842.7L466.01 843.7V833.7L445.293 833.1L436.01 842.7L429.01 882.7C429.01 882.7 439.01 881.7 441.01 882.7C443.01 883.7 457.01 905.7 457.01 905.7L568.01 908.7L584.01 900.7C584.01 899.7 585.01 854.7 585.01 854.7L593.202 855.029L593.868 845.158Z" fill="#286D2C" />
<path d="M134.01 950.7V965.7L507.907 975.805L474.01 966.7L217.01 960.7V952.7L134.01 950.7Z" fill="#286D2C" />
<path d="M134.01 950.7V965.7L507.907 975.805L474.01 966.7L217.01 960.7V952.7L134.01 950.7Z" fill="#286D2C" />
</g>
<path id="Local 6 - linha" d="M507.01 842.699L593.868 845.157L593.202 855.029L592.01 872.699L606.01 889.699L605.768 897.43L604.922 924.43L603.232 978.381L507.907 975.805L134.01 965.699V950.699L127.01 939.699L129.01 908.699L154.01 890.699L167.01 881.699L186.01 852.699L188.01 835.699L224.01 826.699L231.255 826.909L266.287 827.922L312.292 829.253L334.467 829.894L354.109 830.462L379.869 831.207L391.164 831.534L410.241 832.086L445.293 833.1L466.01 833.699V843.699L507.01 842.699Z" stroke="#8C3474" stroke-width="4" />
</g>
<g id="Local 5" data-local-id="local-5">
<g id="areas verdes_5">
<path d="M509.01 744.699C509.01 744.699 506.01 733.699 507.01 733.699C508.01 733.699 511.01 730.699 511.01 730.699V717.699L509.01 715.699V707.699L512.01 703.699V691.699C512.01 691.699 513.01 678.699 507.01 657.699C502.521 641.987 489.01 641.699 489.01 641.699L407.01 656.699L397.01 690.699L409.232 738.943L508.01 757.699L509.01 744.699Z" fill="#286D2C" />
<path d="M509.01 744.699C509.01 744.699 506.01 733.699 507.01 733.699C508.01 733.699 511.01 730.699 511.01 730.699V717.699L509.01 715.699V707.699L512.01 703.699V691.699C512.01 691.699 513.01 678.699 507.01 657.699C502.521 641.987 489.01 641.699 489.01 641.699L407.01 656.699L397.01 690.699L409.232 738.943L508.01 757.699L509.01 744.699Z" fill="#286D2C" />
<path d="M531.01 610.699L532.01 618.699H539.01V609.699L531.01 610.699Z" fill="#286D2C" />
<path d="M531.01 610.699L532.01 618.699H539.01V609.699L531.01 610.699Z" fill="#286D2C" />
<path d="M523.01 639.699L541.01 640.699V636.699H566.01C566.01 636.699 566.01 688.699 565.01 687.699C564.01 686.699 524.01 685.699 524.01 685.699L523.01 639.699Z" fill="#286D2C" />
<path d="M523.01 639.699L541.01 640.699V636.699H566.01C566.01 636.699 566.01 688.699 565.01 687.699C564.01 686.699 524.01 685.699 524.01 685.699L523.01 639.699Z" fill="#286D2C" />
<path d="M507.01 842.699V829.699L504.01 825.699L505.01 817.699L509.01 815.699V801.699L506.01 798.699L507.01 790.699C507.01 790.699 503.01 779.699 504.01 777.699C505.01 775.699 466.315 812.665 466.315 812.665L466.01 833.699V843.699L507.01 842.699Z" fill="#286D2C" />
<path d="M507.01 842.699V829.699L504.01 825.699L505.01 817.699L509.01 815.699V801.699L506.01 798.699L507.01 790.699C507.01 790.699 503.01 779.699 504.01 777.699C505.01 775.699 466.315 812.665 466.315 812.665L466.01 833.699V843.699L507.01 842.699Z" fill="#286D2C" />
<path d="M412.474 751.74L416.01 765.699L467.01 764.699L466.534 797.54C467.01 796.699 492.01 776.699 492.01 776.699L474.01 761.699L412.474 751.74Z" fill="#286D2C" />
<path d="M412.474 751.74L416.01 765.699L467.01 764.699L466.534 797.54C467.01 796.699 492.01 776.699 492.01 776.699L474.01 761.699L412.474 751.74Z" fill="#286D2C" />
<path d="M521.01 776.699V785.699L560.01 787.699V771.699L521.01 776.699Z" fill="#286D2C" />
<path d="M521.01 776.699V785.699L560.01 787.699V771.699L521.01 776.699Z" fill="#286D2C" />
<path d="M521.01 750.699V759.699L561.01 762.699C561.01 762.699 562.01 751.699 561.01 751.699C560.01 751.699 521.01 750.699 521.01 750.699Z" fill="#286D2C" />
<path d="M521.01 750.699V759.699L561.01 762.699C561.01 762.699 562.01 751.699 561.01 751.699C560.01 751.699 521.01 750.699 521.01 750.699Z" fill="#286D2C" />
</g>
<path id="Local 5 - linha" d="M507.01 829.699V842.699L466.01 843.699V833.699L466.315 812.665L466.534 797.54L467.01 764.699L416.01 765.699L412.474 751.74L409.232 738.943L397.01 690.699L407.01 656.699L391.181 639.508L417.01 633.699H448.01L466.01 623.699L465.01 632.699L489.01 626.699L509.01 627.699L509.96 555.498L510.01 551.699L515.272 556.393L547.01 584.699V629.699L570.01 630.699V692.699L512.01 691.699V703.699L509.01 707.699V715.699L511.01 717.699V730.699C511.01 730.699 508.01 733.699 507.01 733.699C506.01 733.699 509.01 744.699 509.01 744.699L568.01 747.699L567.01 790.699H507.01L506.01 798.699L509.01 801.699V815.699L505.01 817.699L504.01 825.699L507.01 829.699Z" stroke="#8C3474" stroke-width="4" />
</g>
<g id="Local 4" data-local-id="local-4">
<g id="areas verdes_6">
<path d="M267.01 312.699L269.01 264.699L382.01 266.699L381.01 313.699L383.01 327.699L409.01 342.699H426.01C426.01 341.699 430.058 251.002 430.058 251.002L275.01 110.699L196.522 223.58L186.01 238.699L213.01 247.699L235.01 318.699L248.01 327.699L266.092 327.116L267.01 312.699Z" fill="#286D2C" />
<path d="M267.01 312.699L269.01 264.699L382.01 266.699L381.01 313.699L383.01 327.699L409.01 342.699H426.01C426.01 341.699 430.058 251.002 430.058 251.002L275.01 110.699L196.522 223.58L186.01 238.699L213.01 247.699L235.01 318.699L248.01 327.699L266.092 327.116L267.01 312.699Z" fill="#286D2C" />
<path d="M530.438 341.836L435.182 255.638L434.01 344.699H467.01L501.01 374.699L530.438 341.836Z" fill="#286D2C" />
<path d="M530.438 341.836L435.182 255.638L434.01 344.699H467.01L501.01 374.699L530.438 341.836Z" fill="#286D2C" />
<path d="M445.01 398.699L441.53 506.579L441.01 522.699H395.01L393.01 612.699H385.01L384.01 631.699L391.181 639.508L417.01 633.699H448.01V574.699L463.01 561.699H467.01L468.01 556.699L475.01 557.699L477.01 550.699L480.01 551.699V555.699C480.01 555.699 492.01 556.699 492.01 555.699V547.699C492.01 547.699 488.583 547.915 485.01 544.699C481.917 541.915 482.01 538.699 482.01 538.699C482.01 538.699 481.783 535.25 485.01 531.699C488.449 527.916 492.01 527.699 492.01 527.699C492.01 527.699 495.769 527.782 499.01 530.699C502.436 533.782 502.01 536.699 502.01 536.699C502.01 536.699 502.217 539.38 501.01 542.699C499.55 546.714 498.01 547.699 498.01 547.699C498.01 547.699 502.01 555.699 503.01 555.699C504.01 555.699 509.96 555.498 509.96 555.498L510.01 551.699L515.272 556.393L538.01 556.699L482.01 510.699H473.01C473.01 510.699 468.164 518.93 462.01 517.699C454.831 516.263 454.01 507.699 454.01 507.699C454.01 507.699 455.129 497.786 462.01 496.699C467.796 495.786 472.01 503.699 472.01 503.699H478.01C478.01 503.699 462.285 483.438 467.01 447.699C472.951 402.771 494.01 382.699 494.01 382.699L462.01 353.699H435.01V382.699H445.01V398.699Z" fill="#286D2C" />
<path d="M445.01 398.699L441.53 506.579L441.01 522.699H395.01L393.01 612.699H385.01L384.01 631.699L391.181 639.508L417.01 633.699H448.01V574.699L463.01 561.699H467.01L468.01 556.699L475.01 557.699L477.01 550.699L480.01 551.699V555.699C480.01 555.699 492.01 556.699 492.01 555.699V547.699C492.01 547.699 488.583 547.915 485.01 544.699C481.917 541.915 482.01 538.699 482.01 538.699C482.01 538.699 481.783 535.25 485.01 531.699C488.449 527.916 492.01 527.699 492.01 527.699C492.01 527.699 495.769 527.782 499.01 530.699C502.436 533.782 502.01 536.699 502.01 536.699C502.01 536.699 502.217 539.38 501.01 542.699C499.55 546.714 498.01 547.699 498.01 547.699C498.01 547.699 502.01 555.699 503.01 555.699C504.01 555.699 509.96 555.498 509.96 555.498L510.01 551.699L515.272 556.393L538.01 556.699L482.01 510.699H473.01C473.01 510.699 468.164 518.93 462.01 517.699C454.831 516.263 454.01 507.699 454.01 507.699C454.01 507.699 455.129 497.786 462.01 496.699C467.796 495.786 472.01 503.699 472.01 503.699H478.01C478.01 503.699 462.285 483.438 467.01 447.699C472.951 402.771 494.01 382.699 494.01 382.699L462.01 353.699H435.01V382.699H445.01V398.699Z" fill="#286D2C" />
<path d="M498.01 484.699C498.01 484.699 506.837 486.486 508.01 494.699L574.01 521.699V495.699L561.01 443.699L500.01 388.699C500.01 388.699 475.252 416.349 472.01 474.699C471.01 492.699 492.01 509.699 492.01 509.699L494.01 504.699C494.01 504.699 485.983 499.886 487.01 492.699C487.983 485.886 498.01 484.699 498.01 484.699Z" fill="#286D2C" />
<path d="M498.01 484.699C498.01 484.699 506.837 486.486 508.01 494.699L574.01 521.699V495.699L561.01 443.699L500.01 388.699C500.01 388.699 475.252 416.349 472.01 474.699C471.01 492.699 492.01 509.699 492.01 509.699L494.01 504.699C494.01 504.699 485.983 499.886 487.01 492.699C487.983 485.886 498.01 484.699 498.01 484.699Z" fill="#286D2C" />
<path d="M610.209 414.02L546.421 356.298L566.01 434.699L591.01 455.699L610.209 414.02Z" fill="#286D2C" />
<path d="M610.209 414.02L546.421 356.298L566.01 434.699L591.01 455.699L610.209 414.02Z" fill="#286D2C" />
<path d="M533.01 350.699L538.01 355.699L556.01 424.699L506.01 379.699L533.01 350.699Z" fill="#286D2C" />
<path d="M533.01 350.699L538.01 355.699L556.01 424.699L506.01 379.699L533.01 350.699Z" fill="#286D2C" />
<path d="M572.01 452.699L580.01 481.699L586.01 466.699L572.01 452.699Z" fill="#286D2C" />
<path d="M572.01 452.699L580.01 481.699L586.01 466.699L572.01 452.699Z" fill="#286D2C" />
<path d="M383.01 339.699C383.01 340.699 382.01 355.699 382.01 355.699H402.01C402.01 355.699 401.01 383.699 402.01 383.699H427.01L426.01 354.699H409.01L383.01 339.699Z" fill="#286D2C" />
<path d="M383.01 339.699C383.01 340.699 382.01 355.699 382.01 355.699H402.01C402.01 355.699 401.01 383.699 402.01 383.699H427.01L426.01 354.699H409.01L383.01 339.699Z" fill="#286D2C" />
</g>
<path id="Local 4 - linha" d="M269.01 264.699L267.01 312.699L266.092 327.116L248.01 327.699L235.01 318.699L213.01 247.699L186.01 238.699L275.01 110.699L430.058 251.002L435.182 255.638L530.438 341.836L546.421 356.298L610.209 414.02L622.01 424.699L590.01 496.699L593.01 539.699V585.699L547.01 584.699L515.272 556.393L510.01 551.699L509.96 555.498C509.96 555.498 504.01 555.699 503.01 555.699H492.01C492.01 556.699 480.01 555.699 480.01 555.699V551.699L477.01 550.699L475.01 557.699L468.01 556.699L467.01 561.699H463.01L448.01 574.699V633.699H417.01L391.181 639.508L384.01 631.699L385.01 612.699H393.01L395.01 522.699H441.01L445.01 398.699H398.01L397.01 364.699L336.01 362.699L334.01 346.699L343.01 312.699L381.01 313.699L382.01 266.699L269.01 264.699Z" stroke="#8C3474" stroke-width="4" />
</g>
<g id="Local 3" data-local-id="local-3">
<g id="areas verdes_7">
<path d="M642.01 440.699L622.01 424.699L590.01 496.699L593.01 539.699L825.01 548.699L834.201 539.717L869.01 505.699L426.01 98.6992L337.01 35.6992L266.01 2.69916L253.01 34.6992L275.01 56.6992L309.01 33.6992L695.01 383.699L642.01 440.699Z" fill="#286D2C" />
<path d="M642.01 440.699L622.01 424.699L590.01 496.699L593.01 539.699L825.01 548.699L834.201 539.717L869.01 505.699L426.01 98.6992L337.01 35.6992L266.01 2.69916L253.01 34.6992L275.01 56.6992L309.01 33.6992L695.01 383.699L642.01 440.699Z" fill="#286D2C" />
</g>
<path id="Local3 - linha" d="M257.01 97.6992L275.01 110.699L430.058 251.002L435.182 255.638L530.438 341.836L546.421 356.298L610.209 414.02L622.01 424.699L590.01 496.699L593.01 539.699L825.01 548.699L834.201 539.717L869.01 505.699L426.01 98.6992L337.01 35.6992L266.01 2.69916L253.01 34.6992L275.01 56.6992L257.01 97.6992Z" stroke="#8C3474" stroke-width="4" />
</g>
<g id="Local 2" data-local-id="local-2">
<g id="areas verdes_8">
<path d="M616.01 753.699L614.01 784.699L793.01 789.699L797.01 654.699L781.01 652.699L779.01 644.699L739.01 643.699L737.01 690.699H711.01L708.01 756.699L616.01 753.699Z" fill="#286D2C" />
<path d="M616.01 753.699L614.01 784.699L793.01 789.699L797.01 654.699L781.01 652.699L779.01 644.699L739.01 643.699L737.01 690.699H711.01L708.01 756.699L616.01 753.699Z" fill="#286D2C" />
<path d="M869.01 505.699L834.201 539.717L831.01 646.699H805.01L801.01 790.699L928.01 794.699L931.01 745.699L1012.01 749.699L1017.01 698.699L1036.42 666.228L869.01 505.699Z" fill="#286D2C" />
<path d="M869.01 505.699L834.201 539.717L831.01 646.699H805.01L801.01 790.699L928.01 794.699L931.01 745.699L1012.01 749.699L1017.01 698.699L1036.42 666.228L869.01 505.699Z" fill="#286D2C" />
<path d="M1088.01 715.699L1047.69 677.034L1038.01 694.699L1033.01 714.699L1088.01 715.699Z" fill="#286D2C" />
<path d="M1088.01 715.699L1047.69 677.034L1038.01 694.699L1033.01 714.699L1088.01 715.699Z" fill="#286D2C" />
</g>
<path id="Local2 - linha" d="M834.201 539.717L869.01 505.699L1036.42 666.228L1047.69 677.034L1088.01 715.699L1066.01 728.699L1061.01 911.699L1027.01 910.699L1029.01 872.699L1018.01 885.699L995.77 884.773L998.01 756.699L955.01 755.699L953.01 800.699L608.01 790.699L610.01 748.699L703.01 752.699L706.01 680.699L727.01 682.699L731.01 634.699L823.01 638.699L825.01 548.699L834.201 539.717Z" stroke="#8C3474" stroke-width="4" />
</g>
<g id="Local 1" data-local-id="local-1">
<g id="areas verdes_9">
<path d="M931.01 854.701L593.868 845.159L593.202 855.031L592.01 872.701L606.01 889.701L605.768 897.432L621.321 897.922L624.01 853.701L804.01 858.701L807.01 871.701L821.01 885.701L844.01 888.701L876.01 886.701L894.01 884.701L906.01 887.701L918.01 870.701L922.01 861.701L930.01 862.701L931.01 854.701Z" fill="#286D2C" />
<path d="M931.01 854.701L593.868 845.159L593.202 855.031L592.01 872.701L606.01 889.701L605.768 897.432L621.321 897.922L624.01 853.701L804.01 858.701L807.01 871.701L821.01 885.701L844.01 888.701L876.01 886.701L894.01 884.701L906.01 887.701L918.01 870.701L922.01 861.701L930.01 862.701L931.01 854.701Z" fill="#286D2C" />
</g>
<path id="Local 1 - linha" d="M1027.01 910.699L1061.01 911.699L1059.01 990.699L603.232 978.381L604.922 924.43L605.768 897.43L606.01 889.699L592.01 872.699L593.202 855.029L593.868 845.157L931.01 854.699V815.699H947.01L946.01 882.699L995.77 884.773L1018.01 885.699L1029.01 872.699L1027.01 910.699Z" stroke="#8C3474" stroke-width="4" />
</g>
</g>
</svg>