<svg width="1092" height="1002" viewBox="0 0 1092 1002" fill="none" xmlns="http://www.w3.org/2000/svg">
<g id="Locais individuais">
<g id="rua">
<path d="M257.01 106.524L275.01 119.524L430.058 259.827L435.182 264.463L530.438 350.661L546.421 365.123L610.209 422.845L622.01 433.524L642.01 449.524L695.01 392.524L309.01 42.5244L275.01 65.5244L257.01 106.524Z" fill="black"/>
<path d="M186.01 247.524L196.522 232.406L275.01 119.524L257.01 106.524L275.01 65.5244L232.01 42.5244L224.01 57.5244L221.01 65.5244L216.01 63.5244L211.01 71.5244L215.01 74.5244L120.137 228.577L114.01 238.524L108.2 289.524L94.1318 294.024L90.0103 325.524L62.5103 362.524L108.2 348.024L176.01 320.524L177.333 310.868L178.536 302.086L182.952 269.849L186.01 247.524Z" fill="black"/>
<path d="M127.01 948.524L129.01 917.524L30.0557 916.126L29.314 955.421L134.01 959.524L127.01 948.524Z" fill="black"/>
<path fill-rule="evenodd" clip-rule="evenodd" d="M129.01 917.524L127.01 948.524L134.01 959.524L217.01 961.524V969.524L474.01 975.524L507.907 984.63L603.232 987.206L604.922 933.255L583.01 932.524L569.01 931.524L566.01 925.524L452.01 922.524L437.01 898.524L404.01 897.524L382.01 926.524L292.01 924.524C292.01 924.524 281.316 925.367 266.01 916.524C251.316 908.034 247.01 898.524 247.01 898.524C247.01 898.524 234.677 878.524 210.01 878.524C186.01 878.524 174.01 898.524 174.01 898.524C174.01 898.524 168.866 905.674 155.01 911.524C138.866 918.341 129.01 917.524 129.01 917.524ZM201.01 908.524C198.004 911.433 197.01 917.06 197.01 917.524C197.01 917.524 196.01 922.524 200.01 926.524C204.677 931.191 210.01 930.524 210.01 930.524C210.01 930.524 215.953 930.971 221.01 925.524C224.62 921.638 223.01 916.524 223.01 916.524C223.01 916.524 223.44 911.614 219.01 907.524C214.774 903.614 210.01 904.524 210.01 904.524C210.01 904.524 204.472 905.176 201.01 908.524ZM244.01 920.524L236.01 932.524L262.01 933.524L244.01 920.524Z" fill="black"/>
<path d="M1061.01 920.524L1027.01 919.524L621.321 906.745L605.768 906.255L604.922 933.255L603.232 987.206L1059.01 999.524L1061.01 920.524Z" fill="black"/>
<path d="M62.5103 362.524L90.0103 325.524L70.0103 328.024L83.5103 228.577L57.5103 236.024L40.5103 259.827L26.5103 382.524L57.5103 374.024L62.5103 362.524Z" fill="black"/>
</g>
<g id="caminhaveis">
<path d="M445.293 841.925L410.241 840.911L410.01 861.524L391.01 847.524L391.164 840.359L379.869 840.033C379.869 840.033 379.01 848.524 380.01 849.524C381.01 850.524 410.01 871.524 410.01 871.524L408.01 890.524L400.01 889.524L380.01 918.524L291.01 915.524L231.255 835.734L224.01 835.524L188.01 844.524L186.01 861.524L167.01 890.524L154.01 899.524L129.01 917.524C129.01 917.524 138.866 918.341 155.01 911.524C168.866 905.674 174.01 898.524 174.01 898.524C174.01 898.524 186.01 878.524 210.01 878.524C234.677 878.524 247.01 898.524 247.01 898.524C247.01 898.524 251.316 908.034 266.01 916.524C281.316 925.367 292.01 924.524 292.01 924.524L382.01 926.524L404.01 897.524L437.01 898.524L452.01 922.524L566.01 925.524L569.01 931.524L583.01 932.524C583.01 932.524 586.01 926.524 587.01 926.524C588.01 926.524 588.01 909.524 588.01 909.524C588.01 909.524 584.01 910.524 584.01 909.524L568.01 917.524L457.01 914.524C457.01 914.524 443.01 892.524 441.01 891.524C439.01 890.524 429.01 891.524 429.01 891.524L436.01 851.524L445.293 841.925Z" fill="#D9D9D9"/>
<path fill-rule="evenodd" clip-rule="evenodd" d="M384.01 640.524L322.01 639.524L321.397 595.787L303.01 608.524L257.01 606.524L207.571 589.802C209.01 592.524 202.01 610.524 204.01 611.524C204.866 611.952 216.107 622.9 213.01 636.524C208.01 658.524 202.01 678.524 202.01 678.524C202.01 678.524 207.799 690.146 209.01 709.524C210.01 725.524 204.01 736.524 192.01 745.524C179.568 754.856 169.01 753.524 169.01 753.524L156.01 754.524L158.01 602.524L56.0103 599.524V833.524H41.0103L45.0103 665.524L42.0103 662.524V632.524L20.2656 633.7L5.01025 634.524L4.35742 676.298L14.0103 675.524L11.0103 784.524C11.0103 784.524 10.0103 803.524 10.0103 805.524V826.524H2.01025L31.0103 865.524L30.9004 871.35L48.0103 872.524L71.0103 885.524L121.01 886.524L151.01 877.524L155.01 781.524L190.01 780.524L188.01 844.524L224.01 835.524L225.556 782.187C225.556 782.187 208.091 773.49 234.01 754.524C275.01 724.524 308.01 699.524 308.01 699.524C308.01 699.524 348.595 677.426 367.01 699.524C392.01 729.524 393.023 772.756 393.023 772.756L416.01 774.524L412.474 760.565L409.232 747.768L397.01 699.524L407.01 665.524L391.181 648.333L384.01 640.524ZM56.0103 864.524L61.0103 605.524L153.01 607.524L146.01 866.524L56.0103 864.524ZM233.01 729.524L247.01 650.524L266.01 655.524L290.01 670.524L299.01 683.524L233.01 729.524Z" fill="#D9D9D9"/>
<path fill-rule="evenodd" clip-rule="evenodd" d="M321.397 595.787L321.099 574.505L301.01 574.524L299.01 498.524L320.038 498.819L319.01 425.524H287.01L280.01 369.524H209.01C209.01 369.524 210.947 368.133 212.807 365.485C212.807 365.485 209.01 349.524 192.01 310.524C188.326 302.072 178.536 302.086 178.536 302.086L177.333 310.868C177.333 310.868 184.607 310.689 187.01 316.524C201.01 350.524 204.01 362.524 204.01 362.524V378.524L195.789 384.622L195.498 396.554L203.01 389.524V411.524L195.139 411.292L194.9 421.074L203.01 421.524L202.01 492.524L166.01 491.524V540.524L52.0103 538.524L25.3569 538.97L22.0103 560.524L20.2656 633.7L42.0103 632.524V589.524L51.0103 580.524L189.01 583.524L207.571 589.802L257.01 606.524L303.01 608.524L321.397 595.787ZM172.01 496.524L170.01 552.524L192.01 574.524L230.01 584.524L205.01 504.524H184.01V496.524H172.01ZM275.01 565.524L236.01 582.524L212.01 502.524L214.01 422.524L268.01 434.524L269.01 440.524H277.01L275.01 565.524Z" fill="#D9D9D9"/>
<path d="M167.01 419.524L194.9 421.074L195.139 411.292L195.498 396.554L195.789 384.622L196.01 375.524C196.01 375.524 193.01 364.524 182.01 364.524C172.01 364.524 169.01 375.524 169.01 375.524L167.01 419.524Z" fill="#D9D9D9"/>
<path d="M146.555 456.111L146.776 446.602L120.01 445.524L112.01 454.524L38.0103 453.524L36.9482 464.309L112.01 466.524L119.01 475.524L146.01 479.524L146.29 467.524L131.01 466.524V455.524L146.555 456.111Z" fill="#D9D9D9"/>
<path fill-rule="evenodd" clip-rule="evenodd" d="M381.01 322.524L343.01 321.524L334.01 355.524L336.01 371.524L397.01 373.524L398.01 407.524H445.01V391.524H435.01V362.524H462.01L494.01 391.524C494.01 391.524 472.951 411.596 467.01 456.524C462.285 492.263 478.01 512.524 478.01 512.524H472.01C472.01 512.524 467.796 504.611 462.01 505.524C455.129 506.611 454.01 516.524 454.01 516.524C454.01 516.524 454.831 525.088 462.01 526.524C468.164 527.755 473.01 519.524 473.01 519.524H482.01L538.01 565.524L515.272 565.218L547.01 593.524L593.01 594.524V548.524L590.01 505.524L622.01 433.524L610.209 422.845L591.01 464.524L566.01 443.524L546.421 365.123L530.438 350.661L501.01 383.524L467.01 353.524H434.01L435.182 264.463L430.058 259.827C430.058 259.827 426.01 350.524 426.01 351.524H409.01L383.01 336.524L381.01 322.524ZM538.01 364.524L533.01 359.524L506.01 388.524L556.01 433.524L538.01 364.524ZM574.01 530.524L557.01 540.524L549.01 558.524L552.01 566.524L529.01 548.524L527.01 537.524C527.01 537.524 535.908 533.207 535.01 527.524C533.908 520.541 525.01 518.524 525.01 518.524C525.01 518.524 514.994 520.294 514.01 526.524C512.994 532.96 521.01 537.524 521.01 537.524L520.01 543.524L502.01 526.524L500.01 513.524C500.01 513.524 508.837 509.311 508.01 503.524C506.837 495.311 498.01 493.524 498.01 493.524C498.01 493.524 487.983 494.711 487.01 501.524C485.983 508.711 494.01 513.524 494.01 513.524L492.01 518.524C492.01 518.524 471.01 501.524 472.01 483.524C475.252 425.174 500.01 397.524 500.01 397.524L561.01 452.524L574.01 504.524V530.524ZM382.01 364.524C382.01 364.524 383.01 349.524 383.01 348.524L409.01 363.524H426.01L427.01 392.524H402.01C401.01 392.524 402.01 364.524 402.01 364.524H382.01ZM580.01 490.524L572.01 461.524L586.01 475.524L580.01 490.524Z" fill="#D9D9D9"/>
<path fill-rule="evenodd" clip-rule="evenodd" d="M512.01 700.524L570.01 701.524V639.524L547.01 638.524V593.524L515.272 565.218L510.01 560.524L509.96 564.323L509.01 636.524L489.01 635.524L465.01 641.524L466.01 632.524L448.01 642.524H417.01L391.181 648.333L407.01 665.524L489.01 650.524C489.01 650.524 502.521 650.812 507.01 666.524C513.01 687.524 512.01 700.524 512.01 700.524ZM541.01 649.524L523.01 648.524L524.01 694.524C524.01 694.524 564.01 695.524 565.01 696.524C566.01 697.524 566.01 645.524 566.01 645.524H541.01V649.524ZM532.01 627.524L531.01 619.524L539.01 618.524V627.524H532.01Z" fill="#D9D9D9"/>
<path fill-rule="evenodd" clip-rule="evenodd" d="M507.01 799.524H567.01L568.01 756.524L509.01 753.524L508.01 766.524L409.232 747.768L412.474 760.565L474.01 770.524L492.01 785.524C492.01 785.524 467.01 805.524 466.534 806.366L466.315 821.49C466.315 821.49 505.01 784.524 504.01 786.524C503.01 788.524 507.01 799.524 507.01 799.524ZM521.01 768.524V759.524C521.01 759.524 560.01 760.524 561.01 760.524C562.01 760.524 561.01 771.524 561.01 771.524L521.01 768.524ZM521.01 794.524V785.524L560.01 780.524V796.524L521.01 794.524Z" fill="#D9D9D9"/>
<path fill-rule="evenodd" clip-rule="evenodd" d="M834.201 548.542L825.01 557.524L823.01 647.524L731.01 643.524L727.01 691.524L706.01 689.524L703.01 761.524L610.01 757.524L608.01 799.524L953.01 809.524L955.01 764.524L998.01 765.524L995.77 893.598L1018.01 894.524L1029.01 881.524L1027.01 919.524L1061.01 920.524L1066.01 737.524L1088.01 724.524L1033.01 723.524L1038.01 703.524L1047.69 685.859L1036.42 675.053L1017.01 707.524L1012.01 758.524L931.01 754.524L928.01 803.524L801.01 799.524L805.01 655.524H831.01L834.201 548.542ZM614.01 793.524L616.01 762.524L708.01 765.524L711.01 699.524H737.01L739.01 652.524L779.01 653.524L781.01 661.524L797.01 663.524L793.01 798.524L614.01 793.524Z" fill="#D9D9D9"/>
<path d="M592.01 881.524L593.202 863.854L585.01 863.524C585.01 863.524 584.01 908.524 584.01 909.524C584.01 910.524 588.01 909.524 588.01 909.524C588.01 909.524 588.01 926.524 587.01 926.524C586.01 926.524 583.01 932.524 583.01 932.524L604.922 933.255L605.768 906.255L606.01 898.524L592.01 881.524Z" fill="#D9D9D9"/>
<path d="M129.01 917.524L154.01 899.524L131.01 905.524L30.2944 903.474L30.0557 916.126L129.01 917.524Z" fill="#D9D9D9"/>
<path d="M134.01 974.524V959.524L29.314 955.421L29.0103 971.524L134.01 974.524Z" fill="#D9D9D9"/>
<path d="M134.01 959.524V974.524L507.907 984.63L474.01 975.524L217.01 969.524V961.524L134.01 959.524Z" fill="#D9D9D9"/>
<path d="M492.01 556.524V564.524H503.01C502.01 564.524 498.01 556.524 498.01 556.524C498.01 556.524 499.55 555.539 501.01 551.524C502.217 548.206 502.01 545.524 502.01 545.524C502.01 545.524 502.436 542.607 499.01 539.524C495.769 536.607 492.01 536.524 492.01 536.524C492.01 536.524 488.449 536.742 485.01 540.524C481.783 544.075 482.01 547.524 482.01 547.524C482.01 547.524 481.917 550.74 485.01 553.524C488.583 556.74 492.01 556.524 492.01 556.524Z" fill="#D9D9D9"/>
<path d="M197.01 917.524C197.01 917.06 198.004 911.433 201.01 908.524C204.472 905.176 210.01 904.524 210.01 904.524C210.01 904.524 214.774 903.614 219.01 907.524C223.44 911.614 223.01 916.524 223.01 916.524C223.01 916.524 224.62 921.638 221.01 925.524C215.953 930.971 210.01 930.524 210.01 930.524C210.01 930.524 204.677 931.191 200.01 926.524C196.01 922.524 197.01 917.524 197.01 917.524Z" fill="#D9D9D9"/>
<path d="M30.9004 871.35L30.4287 896.362L48.0103 895.524V872.524L30.9004 871.35Z" fill="#D9D9D9"/>
<path d="M312.292 838.078L266.287 836.747L296.01 866.524L312.292 838.078Z" fill="#D9D9D9"/>
<path d="M410.241 840.911L391.164 840.359L391.01 847.524L410.01 861.524L410.241 840.911Z" fill="#D9D9D9"/>
<path d="M557.01 540.524L574.01 530.524L508.01 503.524C508.837 509.311 500.01 513.524 500.01 513.524L502.01 526.524L520.01 543.524L521.01 537.524C521.01 537.524 512.994 532.96 514.01 526.524C514.994 520.294 525.01 518.524 525.01 518.524C525.01 518.524 533.908 520.541 535.01 527.524C535.908 533.207 527.01 537.524 527.01 537.524L529.01 548.524L552.01 566.524L549.01 558.524L557.01 540.524Z" fill="#D9D9D9"/>
<path d="M287.01 425.524V362.524L323.01 361.524L322.01 321.524H267.01L266.092 335.941L279.01 335.524L280.01 369.524L287.01 425.524Z" fill="#D9D9D9"/>
<path d="M1027.01 919.524L1029.01 881.524L1018.01 894.524L995.77 893.598L946.01 891.524L947.01 824.524H931.01V863.524L930.01 871.524L922.01 870.524L918.01 879.524L906.01 896.524L894.01 893.524L876.01 895.524L844.01 897.524L821.01 894.524L807.01 880.524L804.01 867.524L624.01 862.524L621.321 906.745L1027.01 919.524Z" fill="#D9D9D9"/>
<path d="M26.5103 383.524L5.01025 634.524L20.2656 633.7L22.0103 560.524L25.3569 538.97L36.9482 464.309L38.0103 453.524L48.0103 382.524L55.0103 373.524L26.5103 383.524Z" fill="#D9D9D9"/>
<path d="M182.01 38.5244L77.0103 200.024L57.5103 233.551L63.5103 240.024L77.0103 228.577H82.5103L70.5103 327.524L90.0103 325.524L108.01 240.024L117.073 233.551L120.137 228.577L123.248 223.524L114.51 214.524L123.248 174.524L218.51 54.0244L225.01 56.5244L227.51 42.5244L209.01 33.0244L218.51 9.02435L206.51 2.52435L182.01 38.5244Z" fill="#D9D9D9"/>
<path d="M280.01 369.524L279.01 335.524L266.092 335.941L248.01 336.524L235.01 327.524L213.01 256.524L186.01 247.524L182.952 269.849L178.536 302.086C178.536 302.086 188.326 302.072 192.01 310.524C209.01 349.524 212.807 365.485 212.807 365.485C210.947 368.133 209.01 369.524 209.01 369.524H280.01Z" fill="#D9D9D9"/>
<path d="M331.01 771.208V736.524L364.01 737.524V770.524L368.009 770.832L369.01 730.524L326.01 729.524L325.538 771.264L331.01 771.208Z" fill="#D9D9D9"/>
<path d="M335.01 864.524L334.905 859.524H306.01L305.01 903.524L385.01 905.524L387.01 859.524H354.804L355.01 865.524H379.01L380.01 899.524L310.01 898.524L311.01 863.524L335.01 864.524Z" fill="#D9D9D9"/>
</g>
<g id="Vector">
<path d="M61.0103 605.524L56.0103 864.524L146.01 866.524L153.01 607.524L61.0103 605.524Z" fill="#FE7D09"/>
<path d="M467.01 773.524L416.01 774.524L364.01 770.524V737.524L331.01 736.524V771.524L226.01 766.524L224.01 835.524L334.467 838.719L354.109 839.288L466.01 842.524L467.01 773.524Z" fill="#FE7D09"/>
<path d="M825.01 557.524L593.01 548.524V594.524L547.01 593.524V638.524L570.01 639.524V701.524L512.01 700.524V712.524L509.01 716.524V724.524L511.01 726.524V739.524C511.01 739.524 508.01 742.524 507.01 742.524C506.01 742.524 509.01 753.524 509.01 753.524L568.01 756.524L567.01 799.524H507.01L506.01 807.524L509.01 810.524V824.524L505.01 826.524L504.01 834.524L507.01 838.524V851.524L931.01 863.524V824.524H947.01L946.01 891.524L995.77 893.598L998.01 765.524L955.01 764.524L953.01 809.524L608.01 799.524L610.01 757.524L703.01 761.524L706.01 689.524L727.01 691.524L731.01 643.524L823.01 647.524L825.01 557.524Z" fill="#FE7D09"/>
<path d="M231.51 361.524V400.024H275.01V425.524H319.01L322.01 639.524L384.01 640.524L385.01 621.524H393.01L395.01 531.524H441.01L445.01 407.524H398.01L397.01 373.524L336.01 371.524L334.01 355.524L343.01 321.524L381.01 322.524L382.01 275.524L269.01 273.524L267.01 321.524H322.01L323.01 361.524H231.51Z" fill="#FE7D09"/>
<path d="M55.0103 373.524V434.524L147.01 436.524L146.555 456.111L146.29 467.524L146.01 479.524L54.0103 477.524L52.0103 538.524L166.01 540.524V491.524L202.01 492.524L203.01 421.524L167.01 419.524L169.01 375.524L55.0103 373.524Z" fill="#FE7D09"/>
<path d="M354.109 839.288L334.467 838.719L335.01 864.524L311.01 863.524L310.01 898.524L380.01 899.524L379.01 865.524H355.01L354.109 839.288Z" fill="#FE7D09"/>
<path fill-rule="evenodd" clip-rule="evenodd" d="M509.96 564.323L509.01 636.524L489.01 635.524L465.01 641.524L466.01 632.524L448.01 642.524V583.524L463.01 570.524H467.01L468.01 565.524L475.01 566.524L477.01 559.524L480.01 560.524V564.524C480.01 564.524 492.01 565.524 492.01 564.524H503.01C504.01 564.524 509.96 564.323 509.96 564.323Z" fill="#FE7D09"/>
<path d="M146.29 467.524L146.555 456.111L131.01 455.524V466.524L146.29 467.524Z" fill="#FE7D09"/>
<path d="M212.299 7.52435L258.953 23.116L249.665 50.9102L203.01 35.3185L212.299 7.52435Z" fill="#FE7D09"/>
</g>
<g id="Local 8">
<g id="Vector_2">
<path d="M55.0103 434.521V373.521L48.0103 382.521L38.0103 453.521L112.01 454.521L120.01 445.521L146.776 446.599L147.01 436.521L55.0103 434.521Z" fill="#286D2C"/>
<path d="M55.0103 434.521V373.521L48.0103 382.521L38.0103 453.521L112.01 454.521L120.01 445.521L146.776 446.599L147.01 436.521L55.0103 434.521Z" fill="#286D2C"/>
<path d="M54.0103 477.521L146.01 479.521L119.01 475.521L112.01 466.521L36.9482 464.306L25.3569 538.967L52.0103 538.521L54.0103 477.521Z" fill="#286D2C"/>
<path d="M54.0103 477.521L146.01 479.521L119.01 475.521L112.01 466.521L36.9482 464.306L25.3569 538.967L52.0103 538.521L54.0103 477.521Z" fill="#286D2C"/>
<path d="M236.01 582.521L275.01 565.521L277.01 440.521H269.01L268.01 434.521L214.01 422.521L212.01 502.521L236.01 582.521Z" fill="#286D2C"/>
<path d="M236.01 582.521L275.01 565.521L277.01 440.521H269.01L268.01 434.521L214.01 422.521L212.01 502.521L236.01 582.521Z" fill="#286D2C"/>
<path d="M170.01 552.521L172.01 496.521H184.01V504.521H205.01L230.01 584.521L192.01 574.521L170.01 552.521Z" fill="#286D2C"/>
<path d="M170.01 552.521L172.01 496.521H184.01V504.521H205.01L230.01 584.521L192.01 574.521L170.01 552.521Z" fill="#286D2C"/>
<path d="M195.498 396.551L195.139 411.289L203.01 411.521V389.521L195.498 396.551Z" fill="#286D2C"/>
<path d="M195.498 396.551L195.139 411.289L203.01 411.521V389.521L195.498 396.551Z" fill="#286D2C"/>
<path d="M55.0103 373.521L169.01 375.521C169.01 375.521 172.01 364.521 182.01 364.521C193.01 364.521 196.01 375.521 196.01 375.521L195.789 384.618L204.01 378.521V362.521C204.01 362.521 201.01 350.521 187.01 316.521C184.607 310.686 177.333 310.865 177.333 310.865L162.51 319.524L141.51 333.024L119.01 345.524L63.0103 362.521L55.0103 373.521Z" fill="#286D2C"/>
<path d="M55.0103 373.521L169.01 375.521C169.01 375.521 172.01 364.521 182.01 364.521C193.01 364.521 196.01 375.521 196.01 375.521L195.789 384.618L204.01 378.521V362.521C204.01 362.521 201.01 350.521 187.01 316.521C184.607 310.686 177.333 310.865 177.333 310.865L162.51 319.524L141.51 333.024L119.01 345.524L63.0103 362.521L55.0103 373.521Z" fill="#286D2C"/>
<path d="M321.099 574.502L320.038 498.816L299.01 498.521L301.01 574.521L321.099 574.502Z" fill="#286D2C"/>
<path d="M321.099 574.502L320.038 498.816L299.01 498.521L301.01 574.521L321.099 574.502Z" fill="#286D2C"/>
<path d="M113.889 238.524L119.01 232.024L103.889 223.524L88.5103 326.024L103.889 318.024L113.889 238.524Z" fill="#286D2C"/>
<path d="M113.889 238.524L119.01 232.024L103.889 223.524L88.5103 326.024L103.889 318.024L113.889 238.524Z" fill="#286D2C"/>
<path d="M77.0103 200.524L88.5103 203.024L184.51 74.5244L191.51 44.0244L182.01 38.0244L77.0103 200.524Z" fill="#286D2C"/>
<path d="M77.0103 200.524L88.5103 203.024L184.51 74.5244L191.51 44.0244L182.01 38.0244L77.0103 200.524Z" fill="#286D2C"/>
<path d="M223.889 57.5244L218.889 53.5244L121.889 176.524L108.51 215.024L123.896 223.524L214.889 74.5244L210.889 71.5244L215.889 63.5244L220.889 65.5244L223.889 57.5244Z" fill="#286D2C"/>
<path d="M223.889 57.5244L218.889 53.5244L121.889 176.524L108.51 215.024L123.896 223.524L214.889 74.5244L210.889 71.5244L215.889 63.5244L220.889 65.5244L223.889 57.5244Z" fill="#286D2C"/>
<path d="M81.5103 241.024H87.0103L77.0103 326.024L71.0103 327.524L81.5103 241.024Z" fill="#286D2C"/>
<path d="M81.5103 241.024H87.0103L77.0103 326.024L71.0103 327.524L81.5103 241.024Z" fill="#286D2C"/>
</g>
<path id="Local 8 - linha" d="M323.01 361.524H231.01V399.524H274.51V425.524H319.01L320.038 498.819L321.099 574.505L321.397 595.787L303.01 608.524L257.01 606.524L207.571 589.802L189.01 583.524L51.0103 580.524L42.0103 589.524V632.524L20.2656 633.7L5.01025 634.524L27.0103 379.524L40.5103 261.024L182.01 38.0244L206.01 2.52435L218.01 8.02435L260.01 21.5244L253.01 44.5244L275.01 65.5244L257.01 106.524L275.01 119.524L186.01 247.524L213.01 256.524L235.01 327.524L248.01 336.524L266.092 335.941L267.01 321.524H322.01L323.01 361.524Z" stroke="#8C3474" stroke-width="4"/>
</g>
<g id="Local 7">
<g id="areas verdes">
<path d="M42.0103 589.524V632.524V662.524L45.0103 665.524L41.0103 833.524H56.0103V599.524L158.01 602.524L156.01 754.524L169.01 753.524C169.01 753.524 179.568 754.856 192.01 745.524C204.01 736.524 210.01 725.524 209.01 709.524C207.799 690.146 202.01 678.524 202.01 678.524C202.01 678.524 208.01 658.524 213.01 636.524C216.107 622.9 204.866 611.952 204.01 611.524C202.01 610.524 209.01 592.524 207.571 589.802L189.01 583.524L51.0103 580.524L42.0103 589.524Z" fill="#286D2C"/>
<path d="M42.0103 589.524V632.524V662.524L45.0103 665.524L41.0103 833.524H56.0103V599.524L158.01 602.524L156.01 754.524L169.01 753.524C169.01 753.524 179.568 754.856 192.01 745.524C204.01 736.524 210.01 725.524 209.01 709.524C207.799 690.146 202.01 678.524 202.01 678.524C202.01 678.524 208.01 658.524 213.01 636.524C216.107 622.9 204.866 611.952 204.01 611.524C202.01 610.524 209.01 592.524 207.571 589.802L189.01 583.524L51.0103 580.524L42.0103 589.524Z" fill="#286D2C"/>
<path d="M186.01 861.524L188.01 844.524L190.01 780.524L155.01 781.524L151.01 877.524L121.01 886.524L71.0103 885.524L48.0103 872.524V895.524L30.4287 896.362L30.2944 903.474L131.01 905.524L154.01 899.524L167.01 890.524L186.01 861.524Z" fill="#286D2C"/>
<path d="M186.01 861.524L188.01 844.524L190.01 780.524L155.01 781.524L151.01 877.524L121.01 886.524L71.0103 885.524L48.0103 872.524V895.524L30.4287 896.362L30.2944 903.474L131.01 905.524L154.01 899.524L167.01 890.524L186.01 861.524Z" fill="#286D2C"/>
<path d="M247.01 650.524L233.01 729.524L299.01 683.524L290.01 670.524L266.01 655.524L247.01 650.524Z" fill="#286D2C"/>
<path d="M247.01 650.524L233.01 729.524L299.01 683.524L290.01 670.524L266.01 655.524L247.01 650.524Z" fill="#286D2C"/>
<path d="M134.01 974.524V959.524L29.314 955.421L29.0103 971.524L134.01 974.524Z" fill="#286D2C"/>
<path d="M134.01 974.524V959.524L29.314 955.421L29.0103 971.524L134.01 974.524Z" fill="#286D2C"/>
<path d="M4.35742 676.298L2.01025 826.524H10.0103V805.524C10.0103 803.524 11.0103 784.524 11.0103 784.524L14.0103 675.524L4.35742 676.298Z" fill="#286D2C"/>
<path d="M4.35742 676.298L2.01025 826.524H10.0103V805.524C10.0103 803.524 11.0103 784.524 11.0103 784.524L14.0103 675.524L4.35742 676.298Z" fill="#286D2C"/>
<path d="M225.556 782.187L226.01 766.524L325.538 771.264L326.01 729.524L369.01 730.524L368.009 770.832L393.023 772.756C393.023 772.756 392.01 729.524 367.01 699.524C348.595 677.426 308.01 699.524 308.01 699.524C308.01 699.524 275.01 724.524 234.01 754.524C208.091 773.49 225.556 782.187 225.556 782.187Z" fill="#286D2C"/>
<path d="M225.556 782.187L226.01 766.524L325.538 771.264L326.01 729.524L369.01 730.524L368.009 770.832L393.023 772.756C393.023 772.756 392.01 729.524 367.01 699.524C348.595 677.426 308.01 699.524 308.01 699.524C308.01 699.524 275.01 724.524 234.01 754.524C208.091 773.49 225.556 782.187 225.556 782.187Z" fill="#286D2C"/>
</g>
<path id="Local 7 - linha" d="M226.01 766.524L325.538 771.264L331.01 771.524V736.524L364.01 737.524V770.524L368.009 770.832L393.023 772.756L416.01 774.524L412.474 760.565L409.232 747.768L397.01 699.524L407.01 665.524L391.181 648.333L384.01 640.524L322.01 639.524L321.397 595.787L303.01 608.524L257.01 606.524L207.571 589.802L189.01 583.524L51.0103 580.524L42.0103 589.524V632.524L20.2656 633.7L5.01025 634.524L4.35742 676.298L2.01025 826.524L31.0103 865.524L30.9004 871.35L30.4287 896.362L30.2944 903.474L30.0557 916.126L29.314 955.421L29.0103 971.524L134.01 974.524V959.524L127.01 948.524L129.01 917.524L154.01 899.524L167.01 890.524L186.01 861.524L188.01 844.524L224.01 835.524L226.01 766.524ZM224.01 835.524L225.556 782.187L226.01 766.524L331.51 771.524V736.524L364.01 738.024V770.024L416.01 774.524" stroke="#8C3474" stroke-width="4"/>
</g>
<g id="Local 6">
<g id="areas verdes_2">
<path d="M379.869 840.033L354.109 839.288L354.782 858.865L385.01 859.525V905.525L305.01 903.525L306.01 859.525L334.892 858.897L334.467 838.72L312.292 838.078L296.01 866.525L266.287 836.748L231.255 835.734L291.01 915.525L380.01 918.525L400.01 889.525L408.01 890.525L410.01 871.525C410.01 871.525 381.01 850.525 380.01 849.525C379.01 848.525 379.869 840.033 379.869 840.033Z" fill="#286D2C"/>
<path d="M379.869 840.033L354.109 839.288L354.782 858.865L385.01 859.525V905.525L305.01 903.525L306.01 859.525L334.892 858.897L334.467 838.72L312.292 838.078L296.01 866.525L266.287 836.748L231.255 835.734L291.01 915.525L380.01 918.525L400.01 889.525L408.01 890.525L410.01 871.525C410.01 871.525 381.01 850.525 380.01 849.525C379.01 848.525 379.869 840.033 379.869 840.033Z" fill="#286D2C"/>
<path d="M593.868 853.983L507.01 851.525L466.01 852.525V842.525L445.293 841.925L436.01 851.525L429.01 891.525C429.01 891.525 439.01 890.525 441.01 891.525C443.01 892.525 457.01 914.525 457.01 914.525L568.01 917.525L584.01 909.525C584.01 908.525 585.01 863.525 585.01 863.525L593.202 863.855L593.868 853.983Z" fill="#286D2C"/>
<path d="M593.868 853.983L507.01 851.525L466.01 852.525V842.525L445.293 841.925L436.01 851.525L429.01 891.525C429.01 891.525 439.01 890.525 441.01 891.525C443.01 892.525 457.01 914.525 457.01 914.525L568.01 917.525L584.01 909.525C584.01 908.525 585.01 863.525 585.01 863.525L593.202 863.855L593.868 853.983Z" fill="#286D2C"/>
<path d="M134.01 959.525V974.525L507.907 984.63L474.01 975.525L217.01 969.525V961.525L134.01 959.525Z" fill="#286D2C"/>
<path d="M134.01 959.525V974.525L507.907 984.63L474.01 975.525L217.01 969.525V961.525L134.01 959.525Z" fill="#286D2C"/>
</g>
<path id="Local 6 - linha" d="M507.01 851.524L593.868 853.983L593.202 863.854L592.01 881.524L606.01 898.524L605.768 906.255L604.922 933.255L603.232 987.206L507.907 984.63L134.01 974.524V959.524L127.01 948.524L129.01 917.524L154.01 899.524L167.01 890.524L186.01 861.524L188.01 844.524L224.01 835.524L231.255 835.734L266.287 836.747L312.292 838.078L334.467 838.719L354.109 839.288L379.869 840.033L391.164 840.359L410.241 840.911L445.293 841.925L466.01 842.524V852.524L507.01 851.524Z" stroke="#8C3474" stroke-width="4"/>
</g>
<g id="Local 5">
<g id="areas verdes_3">
<path d="M509.01 753.524C509.01 753.524 506.01 742.524 507.01 742.524C508.01 742.524 511.01 739.524 511.01 739.524V726.524L509.01 724.524V716.524L512.01 712.524V700.524C512.01 700.524 513.01 687.524 507.01 666.524C502.521 650.812 489.01 650.524 489.01 650.524L407.01 665.524L397.01 699.524L409.232 747.768L508.01 766.524L509.01 753.524Z" fill="#286D2C"/>
<path d="M509.01 753.524C509.01 753.524 506.01 742.524 507.01 742.524C508.01 742.524 511.01 739.524 511.01 739.524V726.524L509.01 724.524V716.524L512.01 712.524V700.524C512.01 700.524 513.01 687.524 507.01 666.524C502.521 650.812 489.01 650.524 489.01 650.524L407.01 665.524L397.01 699.524L409.232 747.768L508.01 766.524L509.01 753.524Z" fill="#286D2C"/>
<path d="M531.01 619.524L532.01 627.524H539.01V618.524L531.01 619.524Z" fill="#286D2C"/>
<path d="M531.01 619.524L532.01 627.524H539.01V618.524L531.01 619.524Z" fill="#286D2C"/>
<path d="M523.01 648.524L541.01 649.524V645.524H566.01C566.01 645.524 566.01 697.524 565.01 696.524C564.01 695.524 524.01 694.524 524.01 694.524L523.01 648.524Z" fill="#286D2C"/>
<path d="M523.01 648.524L541.01 649.524V645.524H566.01C566.01 645.524 566.01 697.524 565.01 696.524C564.01 695.524 524.01 694.524 524.01 694.524L523.01 648.524Z" fill="#286D2C"/>
<path d="M507.01 851.524V838.524L504.01 834.524L505.01 826.524L509.01 824.524V810.524L506.01 807.524L507.01 799.524C507.01 799.524 503.01 788.524 504.01 786.524C505.01 784.524 466.315 821.49 466.315 821.49L466.01 842.524V852.524L507.01 851.524Z" fill="#286D2C"/>
<path d="M507.01 851.524V838.524L504.01 834.524L505.01 826.524L509.01 824.524V810.524L506.01 807.524L507.01 799.524C507.01 799.524 503.01 788.524 504.01 786.524C505.01 784.524 466.315 821.49 466.315 821.49L466.01 842.524V852.524L507.01 851.524Z" fill="#286D2C"/>
<path d="M412.474 760.565L416.01 774.524L467.01 773.524L466.534 806.366C467.01 805.524 492.01 785.524 492.01 785.524L474.01 770.524L412.474 760.565Z" fill="#286D2C"/>
<path d="M412.474 760.565L416.01 774.524L467.01 773.524L466.534 806.366C467.01 805.524 492.01 785.524 492.01 785.524L474.01 770.524L412.474 760.565Z" fill="#286D2C"/>
<path d="M521.01 785.524V794.524L560.01 796.524V780.524L521.01 785.524Z" fill="#286D2C"/>
<path d="M521.01 785.524V794.524L560.01 796.524V780.524L521.01 785.524Z" fill="#286D2C"/>
<path d="M521.01 759.524V768.524L561.01 771.524C561.01 771.524 562.01 760.524 561.01 760.524C560.01 760.524 521.01 759.524 521.01 759.524Z" fill="#286D2C"/>
<path d="M521.01 759.524V768.524L561.01 771.524C561.01 771.524 562.01 760.524 561.01 760.524C560.01 760.524 521.01 759.524 521.01 759.524Z" fill="#286D2C"/>
</g>
<path id="Local 5 - linha" d="M507.01 838.524V851.524L466.01 852.524V842.524L466.315 821.49L466.534 806.366L467.01 773.524L416.01 774.524L412.474 760.565L409.232 747.768L397.01 699.524L407.01 665.524L391.181 648.333L417.01 642.524H448.01L466.01 632.524L465.01 641.524L489.01 635.524L509.01 636.524L509.96 564.323L510.01 560.524L515.272 565.218L547.01 593.524V638.524L570.01 639.524V701.524L512.01 700.524V712.524L509.01 716.524V724.524L511.01 726.524V739.524C511.01 739.524 508.01 742.524 507.01 742.524C506.01 742.524 509.01 753.524 509.01 753.524L568.01 756.524L567.01 799.524H507.01L506.01 807.524L509.01 810.524V824.524L505.01 826.524L504.01 834.524L507.01 838.524Z" stroke="#8C3474" stroke-width="4"/>
</g>
<g id="Local 4">
<g id="areas verdes_4">
<path d="M267.01 321.524L269.01 273.524L382.01 275.524L381.01 322.524L383.01 336.524L409.01 351.524H426.01C426.01 350.524 430.058 259.827 430.058 259.827L275.01 119.524L196.522 232.406L186.01 247.524L213.01 256.524L235.01 327.524L248.01 336.524L266.092 335.941L267.01 321.524Z" fill="#286D2C"/>
<path d="M267.01 321.524L269.01 273.524L382.01 275.524L381.01 322.524L383.01 336.524L409.01 351.524H426.01C426.01 350.524 430.058 259.827 430.058 259.827L275.01 119.524L196.522 232.406L186.01 247.524L213.01 256.524L235.01 327.524L248.01 336.524L266.092 335.941L267.01 321.524Z" fill="#286D2C"/>
<path d="M530.438 350.661L435.182 264.463L434.01 353.524H467.01L501.01 383.524L530.438 350.661Z" fill="#286D2C"/>
<path d="M530.438 350.661L435.182 264.463L434.01 353.524H467.01L501.01 383.524L530.438 350.661Z" fill="#286D2C"/>
<path d="M445.01 407.524L441.53 515.404L441.01 531.524H395.01L393.01 621.524H385.01L384.01 640.524L391.181 648.333L417.01 642.524H448.01V583.524L463.01 570.524H467.01L468.01 565.524L475.01 566.524L477.01 559.524L480.01 560.524V564.524C480.01 564.524 492.01 565.524 492.01 564.524V556.524C492.01 556.524 488.583 556.74 485.01 553.524C481.917 550.74 482.01 547.524 482.01 547.524C482.01 547.524 481.783 544.075 485.01 540.524C488.449 536.742 492.01 536.524 492.01 536.524C492.01 536.524 495.769 536.607 499.01 539.524C502.436 542.607 502.01 545.524 502.01 545.524C502.01 545.524 502.217 548.206 501.01 551.524C499.55 555.539 498.01 556.524 498.01 556.524C498.01 556.524 502.01 564.524 503.01 564.524C504.01 564.524 509.96 564.323 509.96 564.323L510.01 560.524L515.272 565.218L538.01 565.524L482.01 519.524H473.01C473.01 519.524 468.164 527.755 462.01 526.524C454.831 525.088 454.01 516.524 454.01 516.524C454.01 516.524 455.129 506.611 462.01 505.524C467.796 504.611 472.01 512.524 472.01 512.524H478.01C478.01 512.524 462.285 492.263 467.01 456.524C472.951 411.596 494.01 391.524 494.01 391.524L462.01 362.524H435.01V391.524H445.01V407.524Z" fill="#286D2C"/>
<path d="M445.01 407.524L441.53 515.404L441.01 531.524H395.01L393.01 621.524H385.01L384.01 640.524L391.181 648.333L417.01 642.524H448.01V583.524L463.01 570.524H467.01L468.01 565.524L475.01 566.524L477.01 559.524L480.01 560.524V564.524C480.01 564.524 492.01 565.524 492.01 564.524V556.524C492.01 556.524 488.583 556.74 485.01 553.524C481.917 550.74 482.01 547.524 482.01 547.524C482.01 547.524 481.783 544.075 485.01 540.524C488.449 536.742 492.01 536.524 492.01 536.524C492.01 536.524 495.769 536.607 499.01 539.524C502.436 542.607 502.01 545.524 502.01 545.524C502.01 545.524 502.217 548.206 501.01 551.524C499.55 555.539 498.01 556.524 498.01 556.524C498.01 556.524 502.01 564.524 503.01 564.524C504.01 564.524 509.96 564.323 509.96 564.323L510.01 560.524L515.272 565.218L538.01 565.524L482.01 519.524H473.01C473.01 519.524 468.164 527.755 462.01 526.524C454.831 525.088 454.01 516.524 454.01 516.524C454.01 516.524 455.129 506.611 462.01 505.524C467.796 504.611 472.01 512.524 472.01 512.524H478.01C478.01 512.524 462.285 492.263 467.01 456.524C472.951 411.596 494.01 391.524 494.01 391.524L462.01 362.524H435.01V391.524H445.01V407.524Z" fill="#286D2C"/>
<path d="M498.01 493.524C498.01 493.524 506.837 495.311 508.01 503.524L574.01 530.524V504.524L561.01 452.524L500.01 397.524C500.01 397.524 475.252 425.174 472.01 483.524C471.01 501.524 492.01 518.524 492.01 518.524L494.01 513.524C494.01 513.524 485.983 508.711 487.01 501.524C487.983 494.711 498.01 493.524 498.01 493.524Z" fill="#286D2C"/>
<path d="M498.01 493.524C498.01 493.524 506.837 495.311 508.01 503.524L574.01 530.524V504.524L561.01 452.524L500.01 397.524C500.01 397.524 475.252 425.174 472.01 483.524C471.01 501.524 492.01 518.524 492.01 518.524L494.01 513.524C494.01 513.524 485.983 508.711 487.01 501.524C487.983 494.711 498.01 493.524 498.01 493.524Z" fill="#286D2C"/>
<path d="M610.209 422.845L546.421 365.123L566.01 443.524L591.01 464.524L610.209 422.845Z" fill="#286D2C"/>
<path d="M610.209 422.845L546.421 365.123L566.01 443.524L591.01 464.524L610.209 422.845Z" fill="#286D2C"/>
<path d="M533.01 359.524L538.01 364.524L556.01 433.524L506.01 388.524L533.01 359.524Z" fill="#286D2C"/>
<path d="M533.01 359.524L538.01 364.524L556.01 433.524L506.01 388.524L533.01 359.524Z" fill="#286D2C"/>
<path d="M572.01 461.524L580.01 490.524L586.01 475.524L572.01 461.524Z" fill="#286D2C"/>
<path d="M572.01 461.524L580.01 490.524L586.01 475.524L572.01 461.524Z" fill="#286D2C"/>
<path d="M383.01 348.524C383.01 349.524 382.01 364.524 382.01 364.524H402.01C402.01 364.524 401.01 392.524 402.01 392.524H427.01L426.01 363.524H409.01L383.01 348.524Z" fill="#286D2C"/>
<path d="M383.01 348.524C383.01 349.524 382.01 364.524 382.01 364.524H402.01C402.01 364.524 401.01 392.524 402.01 392.524H427.01L426.01 363.524H409.01L383.01 348.524Z" fill="#286D2C"/>
</g>
<path id="Local 4 - linha" d="M269.01 273.524L267.01 321.524L266.092 335.941L248.01 336.524L235.01 327.524L213.01 256.524L186.01 247.524L275.01 119.524L430.058 259.827L435.182 264.463L530.438 350.661L546.421 365.123L610.209 422.845L622.01 433.524L590.01 505.524L593.01 548.524V594.524L547.01 593.524L515.272 565.218L510.01 560.524L509.96 564.323C509.96 564.323 504.01 564.524 503.01 564.524H492.01C492.01 565.524 480.01 564.524 480.01 564.524V560.524L477.01 559.524L475.01 566.524L468.01 565.524L467.01 570.524H463.01L448.01 583.524V642.524H417.01L391.181 648.333L384.01 640.524L385.01 621.524H393.01L395.01 531.524H441.01L445.01 407.524H398.01L397.01 373.524L336.01 371.524L334.01 355.524L343.01 321.524L381.01 322.524L382.01 275.524L269.01 273.524Z" stroke="#8C3474" stroke-width="4"/>
</g>
<g id="Local 3">
<g id="areas verdes_5">
<path d="M642.01 449.524L622.01 433.524L590.01 505.524L593.01 548.524L825.01 557.524L834.201 548.542L869.01 514.524L426.01 107.524L337.01 44.5244L266.01 11.5244L253.01 43.5244L275.01 65.5244L309.01 42.5244L695.01 392.524L642.01 449.524Z" fill="#286D2C"/>
<path d="M642.01 449.524L622.01 433.524L590.01 505.524L593.01 548.524L825.01 557.524L834.201 548.542L869.01 514.524L426.01 107.524L337.01 44.5244L266.01 11.5244L253.01 43.5244L275.01 65.5244L309.01 42.5244L695.01 392.524L642.01 449.524Z" fill="#286D2C"/>
</g>
<path id="Local3 - linha" d="M257.01 106.524L275.01 119.524L430.058 259.827L435.182 264.463L530.438 350.661L546.421 365.123L610.209 422.845L622.01 433.524L590.01 505.524L593.01 548.524L825.01 557.524L834.201 548.542L869.01 514.524L426.01 107.524L337.01 44.5244L266.01 11.5244L253.01 43.5244L275.01 65.5244L257.01 106.524Z" stroke="#8C3474" stroke-width="4"/>
</g>
<g id="Local 2">
<g id="areas verdes_6">
<path d="M616.01 762.524L614.01 793.524L793.01 798.524L797.01 663.524L781.01 661.524L779.01 653.524L739.01 652.524L737.01 699.524H711.01L708.01 765.524L616.01 762.524Z" fill="#286D2C"/>
<path d="M616.01 762.524L614.01 793.524L793.01 798.524L797.01 663.524L781.01 661.524L779.01 653.524L739.01 652.524L737.01 699.524H711.01L708.01 765.524L616.01 762.524Z" fill="#286D2C"/>
<path d="M869.01 514.524L834.201 548.542L831.01 655.524H805.01L801.01 799.524L928.01 803.524L931.01 754.524L1012.01 758.524L1017.01 707.524L1036.42 675.053L869.01 514.524Z" fill="#286D2C"/>
<path d="M869.01 514.524L834.201 548.542L831.01 655.524H805.01L801.01 799.524L928.01 803.524L931.01 754.524L1012.01 758.524L1017.01 707.524L1036.42 675.053L869.01 514.524Z" fill="#286D2C"/>
<path d="M1088.01 724.524L1047.69 685.859L1038.01 703.524L1033.01 723.524L1088.01 724.524Z" fill="#286D2C"/>
<path d="M1088.01 724.524L1047.69 685.859L1038.01 703.524L1033.01 723.524L1088.01 724.524Z" fill="#286D2C"/>
</g>
<path id="Local2 - linha" d="M834.201 548.542L869.01 514.524L1036.42 675.053L1047.69 685.859L1088.01 724.524L1066.01 737.524L1061.01 920.524L1027.01 919.524L1029.01 881.524L1018.01 894.524L995.77 893.598L998.01 765.524L955.01 764.524L953.01 809.524L608.01 799.524L610.01 757.524L703.01 761.524L706.01 689.524L727.01 691.524L731.01 643.524L823.01 647.524L825.01 557.524L834.201 548.542Z" stroke="#8C3474" stroke-width="4"/>
</g>
<g id="Local 1">
<g id="areas verdes_7">
<path d="M931.01 863.526L593.868 853.984L593.202 863.856L592.01 881.526L606.01 898.526L605.768 906.257L621.321 906.747L624.01 862.526L804.01 867.526L807.01 880.526L821.01 894.526L844.01 897.526L876.01 895.526L894.01 893.526L906.01 896.526L918.01 879.526L922.01 870.526L930.01 871.526L931.01 863.526Z" fill="#286D2C"/>
<path d="M931.01 863.526L593.868 853.984L593.202 863.856L592.01 881.526L606.01 898.526L605.768 906.257L621.321 906.747L624.01 862.526L804.01 867.526L807.01 880.526L821.01 894.526L844.01 897.526L876.01 895.526L894.01 893.526L906.01 896.526L918.01 879.526L922.01 870.526L930.01 871.526L931.01 863.526Z" fill="#286D2C"/>
</g>
<path id="Local 1 - linha" d="M1027.01 919.524L1061.01 920.524L1059.01 999.524L603.232 987.206L604.922 933.255L605.768 906.255L606.01 898.524L592.01 881.524L593.202 863.854L593.868 853.983L931.01 863.524V824.524H947.01L946.01 891.524L995.77 893.598L1018.01 894.524L1029.01 881.524L1027.01 919.524Z" stroke="#8C3474" stroke-width="4"/>
</g>
</g>
</svg>
