<svg xmlns="http://www.w3.org/2000/svg" viewBox="0 0 24 24" fill="currentColor" width="24px" height="24px">
  <path d="M22.46 6c-.77.35-1.6.58-2.46.67.88-.53 1.56-1.37 1.88-2.38-.83.49-1.74.85-2.7 1.03A4.37 4.37 0 0 0 16.05 4c-2.4 0-4.34 1.95-4.34 4.34 0 .34.04.67.11.98-3.6-.18-6.8-1.9-8.94-4.52-.37.64-.58 1.38-.58 2.18 0 1.5.76 2.82 1.92 3.6- .7-.02-1.36-.21-1.94-.53v.05c0 2.1 1.48 3.85 3.44 4.25-.36.1-.74.15-1.13.15-.28 0-.55-.03-.81-.08.55 1.72 2.14 2.98 4.04 3.02-1.47 1.15-3.32 1.82-5.33 1.82-.35 0-.69-.02-1.03-.06 1.9 1.22 4.16 1.92 6.58 1.92 7.9 0 12.23-6.56 12.23-12.23 0-.19 0-.37-.01-.56.84-.6 1.56-1.36 2.14-2.22z"/>
</svg>